<?xml version="1.0" encoding="utf-8"?>
<svg viewBox="362.138 196.621 24 24" width="24" height="24" xmlns="http://www.w3.org/2000/svg">
  <rect width="24" height="24" rx="12" x="362.138" y="196.621" fill="#FF5A00" style="fill-rule: evenodd; paint-order: fill;" transform="matrix(1, 0, 0, 1, 0, 7.105427357601002e-15)"/>
  <path fill-rule="evenodd" clip-rule="evenodd" d="M 379.943 204.15 C 380.203 204.411 380.203 204.833 379.943 205.093 L 372.61 212.426 C 372.349 212.687 371.927 212.687 371.667 212.426 L 368.333 209.093 C 368.073 208.833 368.073 208.411 368.333 208.15 C 368.594 207.89 369.016 207.89 369.276 208.15 L 372.138 211.012 L 379 204.15 C 379.26 203.89 379.683 203.89 379.943 204.15 Z" fill="#0E0C15" style="fill-rule: evenodd; paint-order: fill;" transform="matrix(1, 0, 0, 1, 0, 7.105427357601002e-15)"/>
</svg>