<?xml version="1.0" encoding="utf-8"?>
<svg viewBox="125.374 157.586 40 40" width="40" height="40" xmlns="http://www.w3.org/2000/svg">
  <polygon fill="#ff5a00" fill-rule="nonzero" points="160.587 169.087 160.58 163.874 150.96 157.586 150.96 161.608 157.305 165.786 157.31 168.988 154.362 170.984 152.351 169.517 152.351 167.032 149.074 164.79 149.074 169.313 143.879 172.501 143.869 180.921 140.196 182.989 138.311 181.512 138.311 179.074 140.543 177.545 140.543 177.525 140.543 173.752 136.526 176.44 133.455 174.442 130.65 176.279 135.033 179.28 135.033 181.122 131.874 183.26 128.651 181.078 128.651 173.816 133.436 170.577 133.44 167.461 139.577 171.413 144.735 167.98 141.59 166.145 139.533 167.533 135.051 164.569 140.105 161.622 144.484 164.189 144.484 160.361 140.11 157.797 130.168 163.594 130.161 168.809 125.374 172.051 125.374 182.843 130.161 186.085 130.168 191.3 139.788 197.586 139.788 193.567 133.443 189.389 133.438 186.187 136.386 184.191 138.397 185.658 138.397 188.143 141.674 190.384 141.674 185.861 146.943 182.674 147.002 174.253 150.552 172.185 152.437 173.662 152.437 176.1 150.205 177.629 150.205 177.649 150.205 181.423 154.222 178.734 157.293 180.732 160.098 178.895 155.714 175.892 155.714 174.052 158.874 171.915 162.097 174.097 162.097 181.358 157.313 184.598 157.308 187.713 151.171 183.759 146.013 187.17 149.158 189.002 151.215 187.641 155.697 190.605 150.643 193.552 146.264 190.985 146.264 194.811 150.638 197.375 160.58 191.581 160.587 186.365 165.374 183.123 165.374 172.329" transform="matrix(1, 0, 0, 1, 0, 7.105427357601002e-15)"/>
</svg>