<?xml version="1.0" encoding="utf-8"?>
<svg viewBox="125.3741 157.5862 212.8949 40.0715" width="212.895" height="40.071" xmlns="http://www.w3.org/2000/svg" xmlns:bx="https://boxy-svg.com">
  <defs>
    <style bx:fonts="ADLaM Display">@import url(https://fonts.googleapis.com/css2?family=ADLaM+Display%3Aital%2Cwght%400%2C400&amp;display=swap);</style>
  </defs>
  <g transform="matrix(1, 0, 0, 1, 31.348075866699226, 37.93220520019532)">
    <polygon fill="#ff5a00" fill-rule="nonzero" points="129.239 131.155 129.232 125.942 119.612 119.654 119.612 123.676 125.957 127.854 125.962 131.056 123.014 133.052 121.003 131.585 121.003 129.1 117.726 126.858 117.726 131.381 112.531 134.569 112.521 142.989 108.848 145.057 106.963 143.58 106.963 141.142 109.195 139.613 109.195 139.593 109.195 135.82 105.178 138.508 102.107 136.51 99.302 138.347 103.685 141.348 103.685 143.19 100.526 145.328 97.303 143.146 97.303 135.884 102.088 132.645 102.092 129.529 108.229 133.481 113.387 130.048 110.242 128.213 108.185 129.601 103.703 126.637 108.757 123.69 113.136 126.257 113.136 122.429 108.762 119.865 98.82 125.662 98.813 130.877 94.026 134.119 94.026 144.911 98.813 148.153 98.82 153.368 108.44 159.654 108.44 155.635 102.095 151.457 102.09 148.255 105.038 146.259 107.049 147.726 107.049 150.211 110.326 152.452 110.326 147.929 115.595 144.742 115.654 136.321 119.204 134.253 121.089 135.73 121.089 138.168 118.857 139.697 118.857 139.717 118.857 143.491 122.874 140.802 125.945 142.8 128.75 140.963 124.366 137.96 124.366 136.12 127.526 133.983 130.749 136.165 130.749 143.426 125.965 146.666 125.96 149.781 119.823 145.827 114.665 149.238 117.81 151.07 119.867 149.709 124.349 152.673 119.295 155.62 114.916 153.053 114.916 156.879 119.29 159.443 129.232 153.649 129.239 148.433 134.026 145.191 134.026 134.397"/>
    <text style="fill: rgb(255, 255, 255); font-family: 'ADLaM Display'; font-size: 30px; font-weight: 700; white-space: pre;" x="146.551" y="151.724">Cortexflow</text>
  </g>
</svg>